HIERARCHY
ROOT Hips
{
	OFFSET -0.001795 -0.223333 0.028219
	CHANNELS 6 Xposition Yposition Zposition Zrotation Yrotation Xrotation 
	JOINT LeftUpLeg
	{
		OFFSET 0.069520 -0.091406 -0.006815
		CHANNELS 3 Zrotation Yrotation Xrotation
		JOINT LeftLeg
		{
			OFFSET 0.034277 -0.375199 -0.004496
			CHANNELS 3 Zrotation Yrotation Xrotation
			JOINT LeftFoot
			{
				OFFSET -0.013596 -0.397961 -0.043693
				CHANNELS 3 Zrotation Yrotation Xrotation
				JOINT LeftToe
				{
					OFFSET 0.026358 -0.055791 0.119288
					CHANNELS 3 Zrotation Yrotation Xrotation
					End Site
					{
						OFFSET 0.000000 0.000000 0.000000
					}
				}
			}
		}
	}
	JOINT RightUpLeg
	{
		OFFSET -0.067670 -0.090522 -0.004320
		CHANNELS 3 Zrotation Yrotation Xrotation
		JOINT RightLeg
		{
			OFFSET -0.038290 -0.382569 -0.008850
			CHANNELS 3 Zrotation Yrotation Xrotation
			JOINT RightFoot
			{
				OFFSET 0.015774 -0.398415 -0.042312
				CHANNELS 3 Zrotation Yrotation Xrotation
				JOINT RightToe
				{
					OFFSET -0.025372 -0.048144 0.123348
					CHANNELS 3 Zrotation Yrotation Xrotation
					End Site
					{
						OFFSET 0.000000 0.000000 0.000000
					}
				}
			}
		}
	}
	JOINT Spine
	{
		OFFSET -0.002533 0.108963 -0.026696
		CHANNELS 3 Zrotation Yrotation Xrotation
		JOINT Spine1
		{
			OFFSET 0.005487 0.135180 0.001092
			CHANNELS 3 Zrotation Yrotation Xrotation
			JOINT Spine2
			{
				OFFSET 0.001457 0.052922 0.025425
				CHANNELS 3 Zrotation Yrotation Xrotation
				JOINT Neck
				{
					OFFSET -0.002778 0.213870 -0.042857
					CHANNELS 3 Zrotation Yrotation Xrotation
					JOINT Head
					{
						OFFSET 0.005152 0.064970 0.051349
						CHANNELS 3 Zrotation Yrotation Xrotation
						End Site
						{
							OFFSET 0.000000 0.000000 0.000000
						}
					}
				}
				JOINT LeftShoulder
				{
					OFFSET 0.078845 0.121749 -0.034090
					CHANNELS 3 Zrotation Yrotation Xrotation
					JOINT LeftArm
					{
						OFFSET 0.090977 0.030469 -0.008868
						CHANNELS 3 Zrotation Yrotation Xrotation
						JOINT LeftForeArm
						{
							OFFSET 0.259612 -0.012772 -0.027456
							CHANNELS 3 Zrotation Yrotation Xrotation
							JOINT LeftHand
							{
								OFFSET 0.249234 0.008986 -0.001171
								CHANNELS 3 Zrotation Yrotation Xrotation
								End Site
								{
									OFFSET 0.000000 0.000000 0.000000
								}
							}
						}
					}
				}
				JOINT RightShoulder
				{
					OFFSET -0.081759 0.118833 -0.038615
					CHANNELS 3 Zrotation Yrotation Xrotation
					JOINT RightArm
					{
						OFFSET -0.096012 0.032551 -0.009143
						CHANNELS 3 Zrotation Yrotation Xrotation
						JOINT RightForeArm
						{
							OFFSET -0.253742 -0.013329 -0.021401
							CHANNELS 3 Zrotation Yrotation Xrotation
							JOINT RightHand
							{
								OFFSET -0.255298 0.007772 -0.005559
								CHANNELS 3 Zrotation Yrotation Xrotation
								End Site
								{
									OFFSET 0.000000 0.000000 0.000000
								}
							}
						}
					}
				}
			}
		}
	}
}
MOTION
Frames: 8
Frame Time: 0.050000
-0.104264 0.895100 0.353800 176.549556 -48.396651 -167.268144 -5.524167 19.913399 -37.185574 5.475619 8.180727 20.563082 -2.977323 0.174735 4.213004 0.000000 0.000000 0.000000 -14.063757 10.985670 -28.278559 14.672189 8.293390 17.631852 -47.593760 -17.871701 23.661575 0.000000 0.000000 0.000000 15.659148 14.010562 40.069772 0.637156 -0.709055 -24.092630 -15.920172 -20.200256 33.020664 9.497077 0.301541 -19.463417 0.000000 0.000000 0.000000 -1.691262 -13.844883 29.088263 -64.839617 -63.026408 47.604953 115.058722 -57.561322 -56.900835 0.000000 0.000000 0.000000 4.394546 16.015044 -29.955207 68.226097 -10.893463 -17.990489 128.229687 43.567708 55.598350 0.000000 0.000000 0.000000 
-0.110948 0.895799 0.360611 177.143385 -47.031400 -168.001523 -5.845454 20.643606 -37.679732 6.266771 8.858829 21.861023 -2.965211 0.002075 4.449261 0.000000 0.000000 0.000000 -14.072405 10.995909 -27.844147 13.932600 8.135813 17.149580 -49.427101 -16.094085 24.399981 0.000000 0.000000 0.000000 15.527031 14.249756 40.093717 0.596953 -0.697506 -23.578709 -16.242401 -20.710325 33.362471 9.885820 1.481180 -19.090612 0.000000 0.000000 0.000000 0.672011 -14.183179 29.521346 -65.334990 -65.680149 52.560037 113.617148 -53.131096 -50.216396 0.000000 0.000000 0.000000 2.988729 15.330877 -30.491241 68.340814 -11.986219 -19.916290 127.942099 41.320765 52.784805 0.000000 0.000000 0.000000 
-0.118725 0.896094 0.367529 177.640338 -46.453655 -168.658843 -6.235926 20.969715 -38.104657 6.898700 9.391025 22.958773 -2.833952 -0.068720 4.474766 0.000000 0.000000 0.000000 -14.452122 11.134944 -27.700621 13.892042 8.128402 16.956993 -50.351440 -15.254710 25.238683 0.000000 0.000000 0.000000 15.761992 14.488534 40.398998 0.632288 -0.655678 -23.605146 -16.749291 -21.965855 34.126418 9.288280 2.568883 -18.201793 0.000000 0.000000 0.000000 2.982889 -14.780297 30.317042 -64.896283 -69.427207 57.938680 112.223627 -48.047033 -43.301724 0.000000 0.000000 0.000000 1.890267 15.886093 -30.607823 68.324949 -12.243818 -20.948648 126.943865 40.931543 50.682779 0.000000 0.000000 0.000000 
-0.127955 0.895988 0.374509 178.126215 -45.182242 -169.556439 -6.333792 21.197868 -37.981127 7.616081 10.315323 24.278143 -3.002488 -0.040627 3.873858 0.000000 0.000000 0.000000 -13.891219 10.786756 -26.782666 11.957743 7.551244 16.268484 -52.181283 -12.799900 24.771318 0.000000 0.000000 0.000000 16.257876 14.923782 40.946877 0.278999 -0.752458 -22.954899 -17.154036 -22.675223 34.131883 9.520732 4.874358 -14.765361 0.000000 0.000000 0.000000 4.539927 -15.041863 30.880550 -63.132935 -71.402700 59.441726 113.896769 -45.427882 -40.883395 0.000000 0.000000 0.000000 1.340834 15.990770 -31.372253 67.936993 -13.855886 -21.879665 127.075015 39.211843 48.298318 0.000000 0.000000 0.000000 
-0.138616 0.895748 0.381165 178.411427 -44.364663 -169.792201 -6.247333 20.979705 -37.447297 7.573911 10.689641 24.354777 -3.945292 -0.443131 3.096570 0.000000 0.000000 0.000000 -14.574940 10.986635 -26.429743 11.463648 7.343021 16.056289 -53.143358 -11.523415 25.210073 0.000000 0.000000 0.000000 15.970466 14.778166 40.516065 0.279134 -0.716264 -22.254009 -17.319348 -22.603604 34.074670 8.230693 5.809415 -13.621331 0.000000 0.000000 0.000000 6.313081 -14.817400 30.682587 -63.142300 -73.175562 63.144103 115.076132 -43.403881 -38.652992 0.000000 0.000000 0.000000 0.558536 16.120322 -31.497931 68.103580 -14.376371 -22.993810 127.313515 37.680991 46.067629 0.000000 0.000000 0.000000 
-0.150108 0.895867 0.388112 178.742372 -42.832852 -170.477016 -5.933422 20.999316 -36.792695 7.920244 11.764941 25.389247 -4.716012 -0.523424 1.788270 0.000000 0.000000 0.000000 -14.473702 10.937887 -25.903795 10.419755 7.028192 15.434058 -55.607018 -8.330177 27.037809 0.000000 0.000000 0.000000 16.793724 15.575475 41.534348 -0.536068 -0.860379 -22.190414 -17.223458 -22.713229 34.205203 8.398032 7.198456 -11.883091 0.000000 0.000000 0.000000 7.370780 -14.372951 30.172180 -62.734957 -73.323988 63.818392 117.138930 -43.803537 -40.019716 0.000000 0.000000 0.000000 -0.129058 15.826224 -31.368051 68.032162 -14.806946 -23.726806 127.847105 36.482250 44.551542 0.000000 0.000000 0.000000 
-0.161514 0.895483 0.395522 178.729856 -41.364503 -170.438346 -6.221790 21.164617 -36.770815 8.299032 12.415452 25.995271 -5.730055 -1.088802 1.059589 0.000000 0.000000 0.000000 -15.265683 11.342178 -25.717571 10.511400 7.003320 14.684328 -57.886971 -5.434856 29.256953 0.000000 0.000000 0.000000 16.706263 16.029044 41.836454 -1.000450 -0.891919 -21.785197 -17.075604 -22.349342 34.432018 8.318643 7.844206 -11.607669 0.000000 0.000000 0.000000 8.693778 -13.684027 29.529022 -66.271853 -72.962337 68.172759 118.060064 -44.546165 -41.393461 0.000000 0.000000 0.000000 -0.886374 15.647641 -31.446674 68.331325 -14.755726 -24.516305 127.896139 35.605079 43.224767 0.000000 0.000000 0.000000 
-0.172185 0.894466 0.403483 178.892475 -40.509186 -170.703657 -6.718871 21.452374 -37.207922 9.101964 13.331913 27.457421 -6.839671 -2.015950 -0.075607 0.000000 0.000000 0.000000 -15.782844 11.651721 -25.787851 10.616569 7.026200 14.491030 -60.138637 -2.580120 32.261845 0.000000 0.000000 0.000000 18.017552 16.871263 43.215551 -1.848305 -1.078234 -22.286382 -16.815912 -22.821301 35.071170 7.980009 8.122020 -11.566519 0.000000 0.000000 0.000000 9.576504 -13.027684 28.528567 -69.250854 -72.435982 71.400267 118.478276 -45.142801 -42.449312 0.000000 0.000000 0.000000 -1.456263 14.930240 -31.071580 68.486624 -14.435186 -24.955714 128.603488 34.949987 43.392999 0.000000 0.000000 0.000000 
